PathFileType	4	(x/y/z)	S10_BK_Cal_T01
DataRate	CameraRate	NumFrames	NumMarkers	Units	OrigDataRate	OrigDataStartFrame	OrigNumFrames
240	240	8	51	mm	240	1201	2400
Frame#	Time	Sternum			R.Acromium			L.Acromium			Top.Head			R.ASIS			L.ASIS			R.PSIS			L.PSIS			R.Great.Tro			L.Great.Tro			R.Iliac.Crest			L.Iliac.Crest			V.Sacral			R.Thigh.Upper.Post			R.Thigh.Lower.Ant			R.Thigh.Lower.Post			R.Thigh.Upper.Ant			R.Knee.Lat			R.Knee.Med			R.Shank.Upper.Post			R.Shank.Lower.Ant			R.Shank.Lower.Post			R.Shank.Upper.Ant			R.Ankle.Lat			R.Ankle.Med			R.Heel.Upper			R.Heel.Med			R.Heel.Lat			R.Toe.Lat			R.Toe.Med			R.Toe.Tip			L.Thigh.Upper.Post			L.Thigh.Lower.Ant			L.Thigh.Lower.Post			L.Thigh.Upper.Ant			L.Knee.Lat			L.Knee.Med			L.Shank.Upper.Post			L.Shank.Lower.Ant			L.Shank.Lower.Post			L.Shank.Upper.Ant			L.Ankle.Lat			L.Ankle.Med			L.Heel.Upper			L.Heel.Med			L.Heel.Lat			L.Toe.Lat			L.Toe.Med			L.Toe.Tip			Cervical.Spine			Back			
		X1	Y1	Z1	X2	Y2	Z2	X3	Y3	Z3	X4	Y4	Z4	X5	Y5	Z5	X6	Y6	Z6	X7	Y7	Z7	X8	Y8	Z8	X9	Y9	Z9	X10	Y10	Z10	X11	Y11	Z11	X12	Y12	Z12	X13	Y13	Z13	X14	Y14	Z14	X15	Y15	Z15	X16	Y16	Z16	X17	Y17	Z17	X18	Y18	Z18	X19	Y19	Z19	X20	Y20	Z20	X21	Y21	Z21	X22	Y22	Z22	X23	Y23	Z23	X24	Y24	Z24	X25	Y25	Z25	X26	Y26	Z26	X27	Y27	Z27	X28	Y28	Z28	X29	Y29	Z29	X30	Y30	Z30	X31	Y31	Z31	X32	Y32	Z32	X33	Y33	Z33	X34	Y34	Z34	X35	Y35	Z35	X36	Y36	Z36	X37	Y37	Z37	X38	Y38	Z38	X39	Y39	Z39	X40	Y40	Z40	X41	Y41	Z41	X42	Y42	Z42	X43	Y43	Z43	X44	Y44	Z44	X45	Y45	Z45	X46	Y46	Z46	X47	Y47	Z47	X48	Y48	Z48	X49	Y49	Z49	X50	Y50	Z50	X51	Y51	Z51	

1201	5	860.25	1242.7	308.63	736.16	1405	459.49	742.05	1431.7	152.24	737.37	1731.6	327.28	771.75	958.04	418.84	771.81	971.91	187	577.56	1026.1	335.81	586.03	1029.5	254.37	690.74	903.66	497.07	697.82	921.21	126.87	697.49	1059.7	464.06	722.52	1061.9	159.78	550.86	1001.2	297.92	745.15	709.52	525.97	822.11	646.18	500.28	764.5	621.9	529.92	803.38	735.35	490.75	797.68	495.93	507.91	799.29	486.97	381.36	678.42	297.84	523.13	724.9	218.55	517.56	659.08	225.9	525.35	750.49	291.53	517.31	645.57	112.38	513.76	668.97	110.34	435.94	582.1	63.905	466.87	595.16	36.553	440.84	582.84	39.716	501.52	748.77	38.838	567.37	789.6	44.353	462.66	842.93	61.13	512.06	715.93	654.61	108.69	810.77	598.07	109.42	747.11	564.54	118.53	787.15	685.96	98.44	802.75	494.48	110.99	831.35	481.74	236.85	694.14	312.89	92.899	732.42	208.76	92.642	675.12	237.75	93.113	751.89	283.4	90.252	666.39	107.5	90.453	685.65	106.14	177.43	592.34	78.268	132.61	604.88	46.452	164.71	596.91	48.535	100.56	770.51	41.211	51.928	804.66	46.629	156.37	856.94	57.324	107.53	666.07	1469.8	315.62	582.79	1264.3	300.88
1202	5.0042	860.27	1242.7	308.62	736.2	1404.9	459.49	742.07	1431.6	152.23	737.4	1731.6	327.27	771.75	958.02	418.84	771.8	971.89	187	577.55	1026.1	335.81	586.02	1029.4	254.37	690.74	903.65	497.07	697.81	921.19	126.87	697.49	1059.7	464.06	722.51	1061.9	159.77	550.86	1001.2	297.92	745.17	709.51	525.97	822.12	646.17	500.28	764.51	621.88	529.92	803.39	735.34	490.75	797.7	495.92	507.91	799.31	486.96	381.37	678.43	297.83	523.14	724.91	218.55	517.56	659.1	225.89	525.35	750.51	291.52	517.31	645.58	112.38	513.76	668.97	110.34	435.94	582.1	63.907	466.87	595.16	36.553	440.84	582.84	39.718	501.52	748.77	38.837	567.37	789.6	44.351	462.66	842.93	61.126	512.07	715.92	654.59	108.68	810.77	598.06	109.4	747.11	564.53	118.51	787.14	685.95	98.425	802.76	494.47	110.98	831.39	481.75	236.83	694.16	312.89	92.888	732.43	208.76	92.636	675.13	237.75	93.106	751.9	283.39	90.241	666.39	107.5	90.452	685.65	106.15	177.43	592.34	78.268	132.61	604.88	46.453	164.71	596.91	48.535	100.57	770.51	41.218	51.923	804.67	46.629	156.37	856.94	57.323	107.53	666.1	1469.8	315.61	582.8	1264.3	300.88
1203	5.0083	860.28	1242.6	308.6	736.24	1404.9	459.48	742.1	1431.6	152.22	737.44	1731.6	327.27	771.75	958.01	418.84	771.79	971.87	186.99	577.55	1026.1	335.82	586.02	1029.4	254.37	690.75	903.63	497.07	697.8	921.17	126.87	697.48	1059.7	464.06	722.5	1061.8	159.77	550.85	1001.2	297.92	745.18	709.5	525.97	822.14	646.17	500.28	764.53	621.86	529.92	803.4	735.33	490.75	797.73	495.91	507.91	799.33	486.95	381.37	678.45	297.83	523.14	724.93	218.54	517.56	659.11	225.89	525.36	750.53	291.51	517.31	645.58	112.38	513.76	668.98	110.34	435.94	582.1	63.908	466.87	595.16	36.554	440.84	582.84	39.72	501.52	748.77	38.837	567.37	789.61	44.349	462.66	842.93	61.122	512.07	715.92	654.58	108.67	810.77	598.06	109.39	747.11	564.52	118.5	787.13	685.94	98.41	802.77	494.46	110.96	831.42	481.75	236.8	694.17	312.89	92.877	732.44	208.75	92.629	675.14	237.74	93.099	751.91	283.38	90.23	666.39	107.5	90.45	685.65	106.15	177.43	592.34	78.269	132.61	604.88	46.453	164.71	596.91	48.536	100.57	770.51	41.225	51.917	804.67	46.629	156.36	856.94	57.322	107.53	666.13	1469.7	315.59	582.81	1264.3	300.87
1204	5.0125	860.3	1242.6	308.59	736.27	1404.9	459.48	742.12	1431.6	152.21	737.47	1731.6	327.26	771.75	957.99	418.84	771.79	971.85	186.99	577.55	1026.1	335.83	586.02	1029.4	254.37	690.75	903.62	497.07	697.78	921.15	126.86	697.48	1059.7	464.06	722.5	1061.8	159.76	550.85	1001.2	297.92	745.2	709.5	525.97	822.16	646.16	500.28	764.55	621.85	529.93	803.41	735.32	490.75	797.75	495.9	507.91	799.35	486.95	381.37	678.47	297.82	523.14	724.94	218.54	517.56	659.13	225.89	525.36	750.55	291.5	517.31	645.58	112.38	513.76	668.98	110.34	435.94	582.1	63.91	466.88	595.16	36.555	440.84	582.84	39.722	501.52	748.77	38.836	567.37	789.61	44.347	462.66	842.93	61.117	512.07	715.91	654.57	108.66	810.77	598.05	109.37	747.11	564.51	118.48	787.13	685.94	98.395	802.78	494.45	110.94	831.46	481.75	236.78	694.18	312.88	92.866	732.44	208.75	92.622	675.14	237.74	93.092	751.93	283.38	90.219	666.4	107.5	90.449	685.66	106.15	177.43	592.34	78.27	132.61	604.88	46.454	164.71	596.91	48.537	100.57	770.51	41.232	51.912	804.67	46.628	156.36	856.94	57.321	107.52	666.16	1469.7	315.58	582.82	1264.3	300.87
1205	5.0167	860.31	1242.5	308.57	736.31	1404.9	459.47	742.14	1431.5	152.2	737.51	1731.5	327.26	771.75	957.97	418.83	771.78	971.83	186.98	577.55	1026.1	335.84	586.02	1029.4	254.38	690.75	903.6	497.07	697.77	921.14	126.86	697.48	1059.7	464.06	722.49	1061.8	159.76	550.84	1001.1	297.93	745.22	709.49	525.97	822.18	646.15	500.28	764.57	621.83	529.93	803.43	735.32	490.75	797.78	495.88	507.92	799.37	486.94	381.37	678.49	297.81	523.15	724.95	218.54	517.56	659.14	225.89	525.37	750.57	291.5	517.32	645.59	112.38	513.76	668.98	110.34	435.94	582.11	63.912	466.88	595.17	36.556	440.84	582.84	39.724	501.52	748.77	38.835	567.38	789.61	44.344	462.66	842.93	61.112	512.07	715.91	654.56	108.65	810.76	598.05	109.35	747.11	564.51	118.47	787.12	685.93	98.379	802.79	494.45	110.92	831.5	481.76	236.76	694.19	312.88	92.855	732.45	208.75	92.615	675.15	237.74	93.084	751.94	283.37	90.208	666.4	107.5	90.447	685.66	106.15	177.42	592.34	78.27	132.61	604.89	46.455	164.71	596.91	48.539	100.57	770.51	41.237	51.907	804.67	46.627	156.36	856.94	57.32	107.52	666.19	1469.7	315.57	582.84	1264.3	300.87
1206	5.0208	860.33	1242.5	308.56	736.34	1404.9	459.47	742.15	1431.5	152.18	737.54	1731.5	327.26	771.76	957.96	418.83	771.77	971.81	186.98	577.55	1026.1	335.84	586.02	1029.4	254.38	690.76	903.59	497.07	697.75	921.13	126.86	697.49	1059.7	464.06	722.48	1061.8	159.76	550.84	1001.1	297.93	745.24	709.48	525.98	822.19	646.15	500.28	764.59	621.82	529.94	803.44	735.31	490.75	797.8	495.87	507.92	799.4	486.93	381.38	678.51	297.81	523.15	724.97	218.53	517.56	659.16	225.89	525.37	750.59	291.49	517.32	645.59	112.38	513.76	668.99	110.34	435.94	582.11	63.914	466.88	595.17	36.557	440.85	582.84	39.726	501.52	748.77	38.834	567.38	789.61	44.342	462.66	842.93	61.108	512.07	715.9	654.55	108.64	810.76	598.04	109.33	747.11	564.5	118.46	787.11	685.93	98.363	802.8	494.44	110.9	831.53	481.76	236.73	694.2	312.88	92.844	732.46	208.74	92.608	675.15	237.74	93.077	751.95	283.37	90.198	666.4	107.5	90.445	685.66	106.15	177.42	592.35	78.271	132.61	604.89	46.456	164.71	596.91	48.541	100.57	770.51	41.242	51.902	804.67	46.626	156.36	856.94	57.319	107.52	666.22	1469.6	315.56	582.85	1264.3	300.87
1207	5.025	860.34	1242.5	308.55	736.38	1404.8	459.46	742.17	1431.5	152.17	737.58	1731.5	327.26	771.76	957.94	418.83	771.76	971.8	186.97	577.55	1026	335.85	586.02	1029.4	254.39	690.77	903.58	497.08	697.74	921.12	126.86	697.49	1059.6	464.07	722.47	1061.8	159.76	550.84	1001.1	297.94	745.26	709.48	525.98	822.21	646.14	500.28	764.61	621.81	529.95	803.46	735.31	490.76	797.82	495.86	507.93	799.42	486.93	381.38	678.53	297.8	523.16	724.98	218.53	517.57	659.18	225.88	525.38	750.61	291.48	517.32	645.6	112.38	513.76	668.99	110.34	435.94	582.11	63.916	466.88	595.17	36.559	440.85	582.84	39.728	501.52	748.77	38.834	567.38	789.61	44.339	462.66	842.93	61.103	512.07	715.89	654.53	108.63	810.75	598.04	109.31	747.11	564.49	118.44	787.09	685.92	98.348	802.81	494.43	110.88	831.57	481.77	236.71	694.21	312.88	92.834	732.46	208.74	92.601	675.16	237.74	93.071	751.96	283.37	90.188	666.4	107.5	90.443	685.66	106.15	177.42	592.35	78.272	132.61	604.89	46.458	164.71	596.91	48.544	100.57	770.51	41.246	51.898	804.67	46.625	156.36	856.94	57.318	107.52	666.24	1469.6	315.54	582.86	1264.3	300.87
1208	5.0292	860.36	1242.4	308.53	736.41	1404.8	459.45	742.19	1431.5	152.16	737.62	1731.5	327.26	771.76	957.93	418.83	771.76	971.78	186.97	577.55	1026	335.86	586.02	1029.4	254.39	690.78	903.57	497.08	697.72	921.1	126.87	697.5	1059.6	464.07	722.46	1061.7	159.76	550.84	1001.1	297.95	745.27	709.47	525.98	822.23	646.14	500.28	764.63	621.8	529.95	803.47	735.3	490.76	797.84	495.85	507.93	799.44	486.92	381.39	678.55	297.8	523.16	724.99	218.53	517.57	659.19	225.88	525.39	750.62	291.47	517.33	645.6	112.38	513.76	668.99	110.34	435.94	582.11	63.919	466.88	595.17	36.561	440.85	582.84	39.73	501.52	748.77	38.833	567.38	789.61	44.337	462.66	842.93	61.098	512.07	715.89	654.52	108.62	810.75	598.04	109.3	747.11	564.49	118.43	787.08	685.92	98.332	802.81	494.42	110.86	831.6	481.77	236.69	694.22	312.88	92.825	732.47	208.74	92.595	675.16	237.73	93.064	751.96	283.36	90.179	666.41	107.5	90.441	685.67	106.15	177.41	592.35	78.273	132.61	604.89	46.459	164.71	596.91	48.547	100.57	770.51	41.248	51.896	804.67	46.623	156.36	856.94	57.317	107.52	666.27	1469.6	315.53	582.88	1264.3	300.88
